<svg width="150" height="50" viewBox="0 0 150 50" fill="none" xmlns="http://www.w3.org/2000/svg">
<g clip-path="url(#clip0_1_181)">
<path d="M45.349 34.0885V26.2031H54.1094V23.0521H45.3906V17.2396H55.5156V13.9219H41.6562V34.0885H45.349ZM65.3958 34.5885C65.9323 34.6042 66.4635 34.5625 66.9896 34.4688C67.5156 34.375 68.026 34.2292 68.526 34.0313C69.0208 33.8333 69.4948 33.5885 69.9427 33.2917C70.3906 32.9948 70.8021 32.6615 71.1823 32.2813C71.5573 31.901 71.8958 31.4896 72.1927 31.0417C72.4844 30.5938 72.7292 30.125 72.9271 29.625C73.1302 29.1302 73.276 28.6146 73.3698 28.0885C73.4635 27.5625 73.5 27.0313 73.4896 26.4948C73.5 25.9635 73.4635 25.4323 73.3698 24.9063C73.276 24.3802 73.1302 23.8698 72.9323 23.375C72.7344 22.8802 72.4896 22.4063 72.1979 21.9635C71.9062 21.5156 71.5729 21.1042 71.1927 20.724C70.8177 20.349 70.4063 20.0104 69.9635 19.7135C69.5208 19.4219 69.0469 19.1719 68.5521 18.974C68.0573 18.776 67.5469 18.625 67.026 18.5313C66.5 18.4323 65.9688 18.3906 65.4375 18.4063C64.901 18.3958 64.375 18.4375 63.8542 18.5365C63.3281 18.6354 62.8177 18.7865 62.3281 18.9844C61.8333 19.1875 61.3646 19.4323 60.9219 19.7292C60.474 20.026 60.0677 20.3594 59.6927 20.7396C59.3177 21.1146 58.9792 21.526 58.6875 21.974C58.3958 22.4167 58.151 22.8854 57.9531 23.3802C57.7552 23.875 57.6094 24.3854 57.5104 24.9115C57.4167 25.4375 57.375 25.9635 57.3854 26.4948C57.3698 27.026 57.4115 27.5573 57.5052 28.0781C57.5938 28.6042 57.7396 29.1146 57.9375 29.6042C58.1302 30.099 58.375 30.5729 58.6667 31.0156C58.9583 31.4635 59.2917 31.875 59.6615 32.25C60.0365 32.6302 60.4479 32.9635 60.8906 33.2604C61.3281 33.5573 61.7969 33.8073 62.2917 34.0052C62.7813 34.2083 63.2917 34.3542 63.8125 34.4531C64.3333 34.5521 64.8646 34.599 65.3958 34.5885ZM65.4375 31.2708C62.8646 31.2708 60.9531 29.2344 60.9531 26.4948C60.9531 23.7552 62.8646 21.724 65.4375 21.724C68.0104 21.724 69.9167 23.7552 69.9167 26.4948C69.9167 29.2344 68.0104 31.2292 65.4375 31.2292V31.2708ZM83.4896 34.5885C87.5573 34.5885 90.6667 32.4323 90.6667 26.9948V18.8594H87.0573V26.9115C87.0573 29.6927 85.8958 31.2292 83.4896 31.2292C81.0833 31.2292 79.8802 29.7344 79.8802 26.9115V18.8594H76.3073V26.9948C76.3073 32.4323 79.4219 34.5885 83.4896 34.5885ZM98.1771 34.0885V26.3281C98.1771 23.3438 100.089 21.6823 102.203 21.6823C104.365 21.6823 105.734 22.9271 105.734 25.9583V34.1302H109.302V25.875C109.302 21.099 107.266 18.4063 103.203 18.4063C102.135 18.3594 101.135 18.5885 100.198 19.0938C99.2604 19.6042 98.5208 20.3125 97.974 21.224V18.8594H94.526V34.0885H98.1771ZM119.719 34.5885C122.292 34.5885 124.115 33.1771 124.99 31.5573V34.1302H128.432V13.2188H124.823V19.7708L124.906 21.349C124.073 19.8958 122.25 18.4063 119.76 18.4063C115.318 18.4063 112.328 22.0156 112.328 26.4948C112.328 30.9792 115.359 34.5885 119.719 34.5885ZM120.38 31.2708C117.724 31.2708 115.859 29.1927 115.859 26.4948C115.859 23.7135 117.849 21.724 120.38 21.724C122.87 21.724 124.865 23.7969 124.865 26.4948C124.865 29.1927 122.87 31.2708 120.38 31.2708ZM136.234 34.0885V27.0365C136.234 23.7552 137.896 21.9323 140.385 21.9323H141.797V18.8594H140.177C138.182 18.8594 136.776 19.9375 136.068 21.599V18.8594H132.625V34.0885H136.234Z" fill="#808080"/>
<mask id="mask0_1_181" style="mask-type:luminance" maskUnits="userSpaceOnUse" x="7" y="12" width="17" height="25">
<path d="M7.17188 12.3438H23.151V36.9479H7.17188V12.3438Z" fill="white"/>
</mask>
<g mask="url(#mask0_1_181)">
<path d="M13.4792 13.5885L22.0156 22.099C22.5521 22.6302 22.8958 23.2604 23.0417 23.9948C23.1927 24.7344 23.125 25.4479 22.8385 26.1458C22.6458 26.5938 22.3698 26.9896 22.0156 27.3333L13.5312 35.8177C13.0156 36.3802 12.3854 36.75 11.6406 36.9219C10.8958 37.0938 10.1667 37.0365 9.45833 36.7552C8.74479 36.4688 8.17708 36.0104 7.7552 35.375C7.33333 34.7344 7.12499 34.0365 7.14062 33.2708V16.2448C7.1302 15.4896 7.32812 14.8021 7.73958 14.1719C8.15103 13.5417 8.70833 13.0781 9.40103 12.7917C10.099 12.5 10.8125 12.4323 11.5521 12.5781C12.2917 12.7292 12.9219 13.0729 13.4479 13.6146L13.4792 13.5885Z" fill="#808080"/>
</g>
<mask id="mask1_1_181" style="mask-type:luminance" maskUnits="userSpaceOnUse" x="7" y="12" width="17" height="20">
<path d="M7.17188 12.3438H23.151V31.0104H7.17188V12.3438Z" fill="white"/>
</mask>
<g mask="url(#mask1_1_181)">
<path d="M13.4792 13.5885C12.9583 13.0521 12.3333 12.7083 11.599 12.5573C10.8698 12.401 10.1615 12.4687 9.46875 12.7448C8.78125 13.026 8.22396 13.474 7.80729 14.0885C7.38542 14.7031 7.17188 15.3854 7.17188 16.1302C7.17188 16.1302 20.5781 28.8281 18.4531 30.8958L22.0156 27.3333C22.5469 26.8021 22.8802 26.1771 23.026 25.4427C23.1667 24.7135 23.099 24.0052 22.8125 23.3177C22.625 22.8698 22.3594 22.4687 22.0156 22.125L13.4792 13.5885Z" fill="#808080"/>
</g>
<mask id="mask2_1_181" style="mask-type:luminance" maskUnits="userSpaceOnUse" x="28" y="12" width="6" height="6">
<path d="M28.8073 12.3438H33.6979V17.3333H28.8073V12.3438Z" fill="white"/>
</mask>
<g mask="url(#mask2_1_181)">
<path d="M33.6979 14.8021C33.6979 15.1198 33.6406 15.4271 33.5156 15.7239C33.3958 16.0156 33.2187 16.276 32.9948 16.5C32.7708 16.7291 32.5104 16.901 32.2135 17.0208C31.9219 17.1458 31.6146 17.2083 31.2969 17.2083C30.974 17.2083 30.6719 17.1458 30.375 17.0208C30.0781 16.901 29.8229 16.7291 29.5938 16.5C29.3698 16.276 29.1979 16.0156 29.0729 15.7239C28.9531 15.4271 28.8906 15.1198 28.8906 14.8021C28.8906 14.4844 28.9531 14.1771 29.0729 13.8802C29.1979 13.5885 29.3698 13.3281 29.5938 13.1041C29.8229 12.875 30.0781 12.7031 30.375 12.5833C30.6719 12.4583 30.974 12.3958 31.2969 12.3958C31.6146 12.3958 31.9219 12.4583 32.2135 12.5833C32.5104 12.7031 32.7708 12.875 32.9948 13.1041C33.2187 13.3281 33.3958 13.5885 33.5156 13.8802C33.6406 14.1771 33.6979 14.4844 33.6979 14.8021Z" fill="#808080"/>
<path d="M33.6979 14.8021C33.6979 15.1198 33.6406 15.4271 33.5156 15.7239C33.3958 16.0156 33.2187 16.276 32.9948 16.5C32.7708 16.7291 32.5104 16.901 32.2135 17.0208C31.9219 17.1458 31.6146 17.2083 31.2969 17.2083C30.974 17.2083 30.6719 17.1458 30.375 17.0208C30.0781 16.901 29.8229 16.7291 29.5938 16.5C29.3698 16.276 29.1979 16.0156 29.0729 15.7239C28.9531 15.4271 28.8906 15.1198 28.8906 14.8021C28.8906 14.4844 28.9531 14.1771 29.0729 13.8802C29.1979 13.5885 29.3698 13.3281 29.5938 13.1041C29.8229 12.875 30.0781 12.7031 30.375 12.5833C30.6719 12.4583 30.974 12.3958 31.2969 12.3958C31.6146 12.3958 31.9219 12.4583 32.2135 12.5833C32.5104 12.7031 32.7708 12.875 32.9948 13.1041C33.2187 13.3281 33.3958 13.5885 33.5156 13.8802C33.6406 14.1771 33.6979 14.4844 33.6979 14.8021Z" fill="#808080"/>
</g>
<mask id="mask3_1_181" style="mask-type:luminance" maskUnits="userSpaceOnUse" x="17" y="12" width="17" height="25">
<path d="M17.3333 12.625H33.6979V36.9479H17.3333V12.625Z" fill="white"/>
</mask>
<g mask="url(#mask3_1_181)">
<path d="M32.5938 22.125L24.0833 13.6406C21.8177 11.3229 15.6823 13.9844 17.776 16.0729L23.9115 22.1823C24.2187 22.4844 24.4583 22.8281 24.6406 23.2187C24.8281 23.6041 24.9375 24.0104 24.9792 24.4375C25.0208 24.8594 24.9896 25.2812 24.8854 25.6979C24.776 26.1094 24.6042 26.4948 24.3646 26.8489L23.9115 27.4166L17.776 33.526C15.9115 35.3906 21.8177 38.1354 24.0833 35.875L32.5938 27.3906C33.3385 26.6666 33.7083 25.7916 33.6979 24.7604C33.6979 23.7239 33.3333 22.8489 32.5938 22.125Z" fill="#808080"/>
</g>
<mask id="mask4_1_181" style="mask-type:luminance" maskUnits="userSpaceOnUse" x="17" y="12" width="17" height="20">
<path d="M17.3333 12.625H33.6979V31.0104H17.3333V12.625Z" fill="white"/>
</mask>
<g mask="url(#mask4_1_181)">
<path d="M32.5938 22.125L24.0833 13.6406C21.8177 11.3229 15.6823 13.9844 17.776 16.0729L23.9115 22.1823C24.5208 22.7969 24.8698 23.5312 24.9583 24.3906C26.7656 26.25 28.1823 28.3698 29.2031 30.7552L32.5938 27.3594C33.3385 26.6406 33.7083 25.7656 33.6979 24.7291C33.6927 23.7083 33.3229 22.8437 32.5938 22.125Z" fill="#808080"/>
</g>
</g>
<defs>
<clipPath id="clip0_1_181">
<rect width="150" height="50" fill="white"/>
</clipPath>
</defs>
</svg>
