<svg width="200" height="50" viewBox="0 0 200 50" fill="none" xmlns="http://www.w3.org/2000/svg">
<g clip-path="url(#clip0_1_149)">
<mask id="mask0_1_149" style="mask-type:luminance" maskUnits="userSpaceOnUse" x="9" y="10" width="30" height="30">
<path d="M9.63541 10.5781H38.25V39.1979H9.63541V10.5781Z" fill="white"/>
</mask>
<g mask="url(#mask0_1_149)">
<path d="M9.63541 10.5781H38.25V39.1979H9.63541V10.5781Z" fill="#808080"/>
</g>
<path d="M16.0729 18.6875H18.9375V31.0885H16.0729V18.6875Z" fill="white"/>
<path d="M21.7969 18.6875H24.6562V31.0885H21.7969V18.6875Z" fill="white"/>
<path d="M24.1823 23.4583H29.4271V26.3177H24.1823V23.4583Z" fill="white"/>
<path d="M28.9531 18.6875H31.8125V31.0885H28.9531V18.6875Z" fill="white"/>
<path d="M42.9531 17.4792H46.1979V31.7656H42.9531V17.4792Z" fill="#808080"/>
<path d="M49.6042 31.7656V17.4792H52.9427L56.6979 24.5834L58.1146 27.7396H58.2083C58.1406 26.9792 58.0469 26.1406 57.9531 25.2031C57.8594 24.2709 57.8125 23.3854 57.8125 22.5313V17.4792H60.9062V31.7656H57.5677L53.8021 24.6406L52.3854 21.5261H52.2917C52.3594 22.3125 52.4531 23.1667 52.5469 24.0625C52.6406 24.974 52.6875 25.849 52.6875 26.6927V31.7552H49.6042V31.7656Z" fill="#808080"/>
<path d="M64.2865 31.7656V17.4792H68.3594C69.4635 17.4792 70.4635 17.6198 71.3438 17.8959C72.2292 18.1719 72.9844 18.599 73.625 19.1771C74.25 19.75 74.7396 20.4896 75.0781 21.3802C75.4167 22.2656 75.5885 23.3281 75.5885 24.5573C75.5885 25.7813 75.4167 26.8542 75.0781 27.7552C74.7396 28.6615 74.2656 29.4011 73.6458 30C73.0313 30.599 72.2865 31.0365 71.4271 31.3281C70.5677 31.6146 69.6042 31.7656 68.5417 31.7656H64.2865ZM67.5469 29.1459H68.1615C68.776 29.1459 69.3333 29.0677 69.8333 28.9063C70.3333 28.7448 70.7656 28.4896 71.1146 28.1354C71.4635 27.7761 71.7396 27.3021 71.9375 26.7136C72.1354 26.125 72.2396 25.4115 72.2396 24.5469C72.2396 23.7084 72.1354 22.9896 71.9375 22.4167C71.7396 21.8386 71.4635 21.3802 71.1146 21.0313C70.7656 20.6875 70.3333 20.4427 69.8333 20.2917C69.3333 20.1459 68.776 20.0729 68.1615 20.0729H67.5469V29.1459Z" fill="#808080"/>
<path d="M78.3229 17.4792H81.5677V31.7656H78.3229V17.4792Z" fill="#808080"/>
<path d="M84.974 31.7656V17.4792H93.9844V20.2031H88.2135V23.0729H93.1198V25.7709H88.2135V29.0573H94.2031V31.7761H84.974V31.7656Z" fill="#808080"/>
<path d="M101.495 31.7656V17.4792H104.734V22.9792H109.714V17.4792H112.979V31.7656H109.714V25.8073H104.734V31.7656H101.495Z" fill="#808080"/>
<path d="M114.547 31.7656L119.047 17.4792H122.953L127.464 31.7656H124.026L123.141 28.3646H118.745L117.859 31.7656H114.547ZM119.755 24.5365L119.406 25.849H122.479L122.141 24.5365C121.932 23.8229 121.734 23.0625 121.547 22.2552C121.359 21.4479 121.161 20.6771 120.979 19.9375H120.885C120.708 20.6979 120.526 21.4688 120.339 22.2656C120.161 23.0625 119.964 23.8229 119.755 24.5365Z" fill="#808080"/>
<mask id="mask1_1_149" style="mask-type:luminance" maskUnits="userSpaceOnUse" x="128" y="17" width="12" height="16">
<path d="M128 17.2136H140V32.0209H128V17.2136Z" fill="white"/>
</mask>
<g mask="url(#mask1_1_149)">
<path d="M134.823 32.0209C133.906 32.0209 133.047 31.8594 132.245 31.5469C131.427 31.2344 130.719 30.7761 130.115 30.1511C129.5 29.5417 129.021 28.7813 128.672 27.8594C128.323 26.948 128.141 25.8855 128.141 24.6875C128.141 23.5 128.323 22.448 128.698 21.5157C129.068 20.5938 129.557 19.7969 130.172 19.1667C130.792 18.5209 131.51 18.0365 132.339 17.698C133.161 17.3646 134.031 17.1927 134.943 17.1927C135.87 17.1927 136.698 17.375 137.438 17.7448C138.172 18.1146 138.786 18.5521 139.276 19.0469L137.547 21.1355C137.172 20.8021 136.786 20.5261 136.38 20.3177C135.974 20.1094 135.521 19.9948 135 19.9948C134.51 19.9948 134.057 20.099 133.615 20.3177C133.182 20.5261 132.802 20.8386 132.49 21.2292C132.172 21.6198 131.917 22.1042 131.729 22.6667C131.547 23.2344 131.453 23.8802 131.453 24.5938C131.453 26.0677 131.766 27.2136 132.406 28.0157C133.031 28.823 133.88 29.2292 134.953 29.2292C135.547 29.2292 136.068 29.1042 136.531 28.849C137 28.5938 137.406 28.2709 137.755 27.8907L139.474 29.9115C138.276 31.3282 136.719 32.0209 134.823 32.0209Z" fill="#808080"/>
</g>
<path d="M141.672 31.7656V17.4792H144.917V23.3281H145.01L149.297 17.4792H152.88L148.521 23.1771L153.672 31.7656H150.115L146.599 25.7448L144.927 27.9375V31.7656H141.672Z" fill="#808080"/>
<path d="M155.24 31.7656V17.4792H164.25V20.2031H158.484V23.0729H163.391V25.7709H158.484V29.0573H164.469V31.7761H155.24V31.7656Z" fill="#808080"/>
<path d="M167.344 31.7656V17.4792H172.536C173.307 17.4792 174.026 17.5521 174.688 17.6979C175.365 17.849 175.943 18.0938 176.443 18.4375C176.943 18.7865 177.339 19.2344 177.641 19.8125C177.932 20.375 178.083 21.0886 178.083 21.9323C178.083 22.9792 177.854 23.8438 177.385 24.5261C176.922 25.2031 176.307 25.7136 175.516 26.0469L178.781 31.7656H175.141L172.375 26.625H170.583V31.7656H167.344ZM170.583 24.0521H172.26C173.109 24.0521 173.76 23.8802 174.214 23.5104C174.667 23.1511 174.885 22.625 174.885 21.9219C174.885 21.2188 174.667 20.7344 174.214 20.4531C173.76 20.1771 173.109 20.0417 172.26 20.0417H170.583V24.0521Z" fill="#808080"/>
<mask id="mask2_1_149" style="mask-type:luminance" maskUnits="userSpaceOnUse" x="178" y="17" width="13" height="16">
<path d="M178.667 17.2136H190.667V32.0209H178.667V17.2136Z" fill="white"/>
</mask>
<g mask="url(#mask2_1_149)">
<path d="M184.969 32.0209C184.026 32.0209 183.083 31.8438 182.151 31.5C181.224 31.1563 180.385 30.6459 179.641 29.9531L181.5 27.7396C182.016 28.1771 182.583 28.5365 183.214 28.8125C183.839 29.0886 184.453 29.2292 185.062 29.2292C185.734 29.2292 186.245 29.1042 186.573 28.8594C186.906 28.6042 187.073 28.2709 187.073 27.8594C187.073 27.6354 187.026 27.4531 186.932 27.2917C186.839 27.1302 186.698 26.9948 186.516 26.8646C186.328 26.7396 186.104 26.625 185.849 26.5209C185.594 26.4063 185.302 26.2865 185 26.1615L183.13 25.3802C182.76 25.2292 182.411 25.0417 182.062 24.8125C181.714 24.5834 181.411 24.3073 181.13 23.9948C180.865 23.6823 180.641 23.3125 180.479 22.9011C180.318 22.4844 180.234 22.0104 180.234 21.4792C180.234 20.8959 180.365 20.3542 180.609 19.8334C180.865 19.3125 181.214 18.8646 181.667 18.474C182.12 18.0781 182.667 17.7813 183.292 17.5625C183.922 17.3438 184.604 17.2292 185.365 17.2292C186.198 17.2292 187.026 17.3906 187.849 17.7136C188.667 18.0365 189.385 18.4948 190 19.1198L188.328 21.1354C187.849 20.7656 187.385 20.4896 186.906 20.2917C186.432 20.099 185.922 19.9948 185.339 19.9948C184.781 19.9948 184.339 20.1094 184 20.3281C183.677 20.5573 183.5 20.8698 183.5 21.2865C183.5 21.5052 183.562 21.6875 183.667 21.8386C183.771 21.9896 183.932 22.125 184.13 22.2552C184.328 22.3802 184.562 22.4948 184.828 22.599C185.094 22.7136 185.385 22.8281 185.688 22.9584L187.547 23.7084C188.432 24.0521 189.13 24.5365 189.641 25.1459C190.151 25.7604 190.406 26.5781 190.406 27.5781C190.406 28.1771 190.292 28.7448 190.047 29.2761C189.802 29.8073 189.453 30.2761 188.99 30.6823C188.526 31.0834 187.953 31.4063 187.281 31.6511C186.583 31.9011 185.818 32.0209 184.969 32.0209Z" fill="#808080"/>
</g>
</g>
<defs>
<clipPath id="clip0_1_149">
<rect width="200" height="50" fill="white"/>
</clipPath>
</defs>
</svg>
