<svg width="200" height="50" viewBox="0 0 200 50" fill="none" xmlns="http://www.w3.org/2000/svg">
<g clip-path="url(#clip0_1_129)">
<g clip-path="url(#clip1_1_129)">
<mask id="mask0_1_129" style="mask-type:luminance" maskUnits="userSpaceOnUse" x="18" y="12" width="26" height="26">
<path d="M18.2917 12.0208H44V37.6771H18.2917V12.0208Z" fill="white"/>
</mask>
<g mask="url(#mask0_1_129)">
<path d="M43.0469 24.9843C43.0469 31.875 37.5677 37.4583 30.8073 37.4583C24.0469 37.4583 18.5677 31.875 18.5677 24.9843C18.5677 18.0937 24.0469 12.5104 30.8073 12.5104C37.5677 12.5104 43.0469 18.0989 43.0469 24.9843Z" fill="#808080"/>
</g>
<mask id="mask1_1_129" style="mask-type:luminance" maskUnits="userSpaceOnUse" x="44" y="12" width="14" height="26">
<path d="M44 12.0208H57.3333V37.3333H44V12.0208Z" fill="white"/>
</mask>
<g mask="url(#mask1_1_129)">
<path d="M56.474 24.9843C56.474 31.4687 53.7344 36.7239 50.3542 36.7239C46.974 36.7239 44.2344 31.4687 44.2344 24.9843C44.2344 18.5 46.974 13.2448 50.3542 13.2448C53.7344 13.2448 56.474 18.5 56.474 24.9843Z" fill="#808080"/>
</g>
<path d="M61.9635 24.9844C61.9635 30.7917 61 35.5052 59.8125 35.5052C58.625 35.5052 57.6615 30.7917 57.6615 24.9844C57.6615 19.1771 58.625 14.4636 59.8125 14.4636C61 14.4636 61.9635 19.1771 61.9635 24.9844Z" fill="#808080"/>
<mask id="mask2_1_129" style="mask-type:luminance" maskUnits="userSpaceOnUse" x="68" y="12" width="115" height="26">
<path d="M68 12.0208H182.109V37.3333H68V12.0208Z" fill="white"/>
</mask>
<g mask="url(#mask2_1_129)">
<path d="M95.7448 13.5937L95.776 13.5885V13.3177H88.8177L82.3542 28.6927L75.8906 13.3177H68.3906V13.5885L68.4219 13.5937C69.6927 13.8854 70.3385 14.3177 70.3385 15.8802V34.151C70.3385 35.7135 69.6927 36.1458 68.4219 36.4375L68.3854 36.4427V36.7135H73.4792V36.4427L73.4427 36.4375C72.1719 36.1458 71.526 35.7135 71.526 34.151V16.9375L79.8281 36.7135H80.3021L88.8437 16.3854V34.6041C88.7396 35.8385 88.0989 36.2187 86.9479 36.4791L86.9114 36.4895V36.7552H95.776V36.4895L95.7448 36.4791C94.5937 36.2187 93.9375 35.8385 93.8281 34.6041L93.8229 15.8802H93.8281C93.8281 14.3177 94.4739 13.8854 95.7448 13.5937ZM99.7917 25.6979C99.9375 22.4166 101.104 20.0468 103.057 20.0052C103.661 20.0156 104.167 20.2135 104.562 20.5989C105.396 21.4218 105.786 23.1354 105.729 25.6979H99.7917ZM99.7083 26.625H110.094V26.5833C110.068 24.0677 109.349 22.1145 107.964 20.776C106.766 19.6198 104.99 18.9791 103.13 18.9791H103.089C102.12 18.9791 100.932 19.2187 100.089 19.6458C99.1302 20.0989 98.2812 20.7708 97.5781 21.651C96.4427 23.0781 95.7552 25 95.5885 27.1614C95.5833 27.2239 95.5781 27.2916 95.5729 27.3541C95.5677 27.4218 95.5677 27.4791 95.5625 27.5416C95.5573 27.6562 95.5521 27.7708 95.5521 27.8854C95.5469 28.0729 95.5469 28.2604 95.5469 28.4531C95.6614 33.3489 98.276 37.2604 102.917 37.2604C106.99 37.2604 109.359 34.2448 109.953 30.1979L109.651 30.0937C108.615 32.2656 106.745 33.5833 104.625 33.4218C101.724 33.2031 99.5052 30.2291 99.7031 26.625M121.844 33.2604C121.505 34.0781 120.792 34.526 119.839 34.526C118.885 34.526 118.016 33.8645 117.396 32.6614C116.729 31.3698 116.38 29.5468 116.38 27.3802C116.38 22.8802 117.766 19.9687 119.906 19.9687C120.802 19.9687 121.505 20.4218 121.844 21.2031V33.2604ZM128.734 36.4687C127.464 36.1614 126.823 35.7083 126.823 34.0677V12.2448L119.104 14.5468V14.8281L119.151 14.8229C120.214 14.7343 120.937 14.8854 121.354 15.276C121.682 15.5833 121.844 16.0573 121.844 16.7187V19.7083C121.083 19.2187 120.177 18.9791 119.078 18.9791C116.849 18.9791 114.818 19.927 113.349 21.651C111.818 23.4479 111.005 25.9062 111.005 28.7552C111.005 33.8385 113.479 37.2604 117.161 37.2604C119.318 37.2604 121.052 36.0625 121.844 34.0468V36.7552H128.771V36.4739L128.734 36.4687ZM135.354 15.2135C135.354 13.625 134.172 12.427 132.604 12.427C131.042 12.427 129.818 13.651 129.818 15.2135C129.818 16.776 131.042 18 132.604 18C134.172 18 135.354 16.802 135.354 15.2135ZM137.177 36.4687C135.906 36.1614 135.266 35.7083 135.266 34.0677H135.255V19.0312L128.333 21.0416V21.3177L128.375 21.3229C129.87 21.4531 130.281 21.9791 130.281 23.75V36.7552H137.214V36.4739L137.177 36.4687ZM154.927 36.4687C153.656 36.1614 153.01 35.7083 153.01 34.0677V19.0312L146.417 20.9791V21.25L146.458 21.2552C147.682 21.3854 148.036 21.9375 148.036 23.7187V33.2239C147.625 34.0416 146.859 34.526 145.932 34.5625C144.427 34.5625 143.599 33.5312 143.599 31.6614V19.0312L136.672 21.0416V21.3177L136.714 21.3229C138.208 21.4531 138.62 21.9791 138.62 23.75V31.7968C138.62 32.3593 138.667 32.9166 138.766 33.4687L138.891 34.0208C139.474 36.1458 141.016 37.2604 143.422 37.2604C145.458 37.2604 147.245 35.9791 148.031 33.9843V36.7604H154.958V36.4791L154.927 36.4687ZM181.833 36.7552V36.4739L181.802 36.4635C180.422 36.1406 179.885 35.5364 179.885 34.302V24.0729C179.885 20.8802 178.115 18.9791 175.151 18.9791C172.99 18.9791 171.167 20.2448 170.464 22.2135C169.906 20.125 168.302 18.9791 165.932 18.9791C163.849 18.9791 162.219 20.0937 161.516 21.9687V19.0312L154.589 20.9635V21.2395H154.63C156.115 21.375 156.542 21.9114 156.542 23.6406V36.7552H163.005V36.4739L162.969 36.4635C161.87 36.2031 161.516 35.7239 161.516 34.5V22.776C161.807 22.0885 162.391 21.276 163.552 21.276C164.99 21.276 165.719 22.2864 165.719 24.2708V36.7552H172.187V36.4739L172.151 36.4635C171.052 36.2031 170.698 35.7239 170.698 34.5V24.0729C170.698 23.6823 170.667 23.2916 170.604 22.9062C170.911 22.1614 171.531 21.276 172.74 21.276C174.198 21.276 174.911 22.2552 174.911 24.2708V36.7552H181.833Z" fill="#808080"/>
</g>
</g>
</g>
<defs>
<clipPath id="clip0_1_129">
<rect width="200" height="50" fill="white"/>
</clipPath>
<clipPath id="clip1_1_129">
<rect width="200" height="50" fill="white"/>
</clipPath>
</defs>
</svg>
