<svg width="150" height="50" viewBox="0 0 150 50" fill="none" xmlns="http://www.w3.org/2000/svg">
<g clip-path="url(#clip0_1_211)">
<mask id="mask0_1_211" style="mask-type:luminance" maskUnits="userSpaceOnUse" x="97" y="6" width="38" height="37">
<path d="M97.3333 6.24481H134.469V42.9167H97.3333V6.24481Z" fill="white"/>
</mask>
<g mask="url(#mask0_1_211)">
<path d="M134.469 42.9167H97.4011V6.24481H134.469V42.9167Z" fill="#808080"/>
</g>
<mask id="mask1_1_211" style="mask-type:luminance" maskUnits="userSpaceOnUse" x="15" y="12" width="81" height="31">
<path d="M15.5208 12H96V42.9167H15.5208V12Z" fill="white"/>
</mask>
<g mask="url(#mask1_1_211)">
<path d="M91.0365 31.5781V36.9062H95.5938V31.5781H91.0365ZM82.2917 33.7604C80.1823 33.7604 79.7708 31.7135 79.7708 27.7187C79.7708 23.7187 80.1823 21.6719 82.2917 21.6719C84.3646 21.6719 84.7761 23.7187 84.7761 27.7187C84.7761 31.7135 84.3646 33.7604 82.2917 33.7604ZM67.7552 34.1719C65.4063 34.1719 65.1979 31.4739 65.1979 27.7187C65.1979 23.9583 65.4063 21.2604 67.7552 21.2604C69.6875 21.2604 70.3073 23.1406 70.3073 27.7187C70.3073 32.2916 69.6875 34.1719 67.7552 34.1719ZM53.1927 34.1719C50.8438 34.1719 50.6354 31.4739 50.6354 27.7187C50.6354 23.9583 50.8438 21.2604 53.1927 21.2604C55.125 21.2604 55.75 23.1406 55.75 27.7187C55.75 32.2916 55.125 34.1719 53.1927 34.1719ZM83.8438 18.0469C81.9792 18.0469 80.6667 18.7656 79.6302 20.4739H79.5625V18.526H75.0052V25.625C74.6511 20.5937 72.8229 17.9583 67.7552 18.0469C62.7604 18.0469 60.7761 20.8854 60.4792 26.1823C60.2188 20.7916 58.4479 17.9531 53.1927 18.0469C47.7344 18.0469 45.8698 21.4323 45.8698 27.7187C45.8698 28.4791 45.8958 29.1927 45.9427 29.8698H41.4323C41.4323 32.8385 40.7083 34.1719 39.1198 34.1719C36.9792 34.1719 36.5625 32.2916 36.5625 27.75C36.5625 23.5156 36.9427 21.4635 39.2917 21.4635C41.0886 21.4635 41.4323 23.3802 41.4323 25.1562H45.9896C45.9896 20.8177 43.7083 18.0469 39.3229 18.0469C34.9375 18.0469 31.7969 20.1666 31.7969 27.7187C31.7969 27.9219 31.8021 28.1198 31.8021 28.3125C31.4531 26.2239 30.2448 24.7448 27.224 23.4479L23.3958 21.8073C21.2865 20.9166 20.8386 19.9948 20.8386 18.4948C20.8386 17.0573 21.4271 15.6562 23.6719 15.6562C25.5677 15.6562 26.3646 16.9896 26.3646 19.276H31.1302V18.5937C31.1302 13.9166 27.9167 12.0364 23.4948 12.0364C18.8021 12.0364 15.8646 14.4635 15.8646 19.2083C15.8646 23.276 17.9011 25.0885 22.3229 26.5885C25.6042 27.7187 26.7448 28.5364 26.7448 30.7552C26.7448 32.8073 25.2917 33.7604 23.7761 33.7604C21.1511 33.7604 20.4948 32.2916 20.4948 30.0052V29.2864H15.5208V30.276C15.5208 34.7864 17.7292 37.3854 23.3594 37.3854C28.599 37.3854 31.75 35.1823 31.9167 30.3125C32.4427 35.6458 34.7552 37.3854 38.9115 37.3854C43.7917 37.3854 45.8542 34.8541 45.9844 30.3229C46.4271 35.0156 48.2969 37.4739 53.1927 37.3854C58.1875 37.3854 60.1667 34.5521 60.4688 29.25C60.7292 34.6458 62.5 37.4791 67.7552 37.3854C72.6198 37.3854 74.6302 34.6927 75.0052 29.6458V42.9166H79.7708V35.1979H79.8386C80.8386 36.6666 82.0469 37.3854 83.8438 37.3854C87.7448 37.3854 89.5417 34.5469 89.5417 27.7187C89.5417 20.8854 87.7448 18.0469 83.8438 18.0469Z" fill="#808080"/>
</g>
<path d="M121.646 36.8594H126.411V32.349H121.646V36.8594ZM121.646 12.1927V20.3958L122.302 30.0625H125.755L126.411 20.3958V12.1927H121.646ZM117.38 12.1875H112.615V18.4792H105.453V36.8594H110.219V21.6927H112.615V32.2135C112.615 35.9375 113.302 37.0677 117.031 37.0677C118.135 37.0677 119.104 36.9635 120.141 36.8594V33.5833C119.828 33.6146 119.448 33.651 119.068 33.651C117.688 33.651 117.38 33.0677 117.38 31.6354V21.6927H120.141V18.4792H117.38V12.1875ZM110.219 12.1927H105.453V16.224H110.219V12.1927Z" fill="white"/>
</g>
<defs>
<clipPath id="clip0_1_211">
<rect width="150" height="50" fill="white"/>
</clipPath>
</defs>
</svg>
